<?xml version="1.0" standalone="no"?>
<svg xmlns:xlink="http://www.w3.org/1999/xlink" id="wave" style="transform:rotate(0deg); transition: 0.3s" viewBox="0 0 1440 100" version="1.1" xmlns="http://www.w3.org/2000/svg"><defs><linearGradient id="sw-gradient-0" x1="0" x2="0" y1="1" y2="0"><stop stop-color="rgba(255, 255, 255, 1)" offset="0%"/><stop stop-color="rgba(255, 255, 255, 1)" offset="100%"/></linearGradient></defs><path style="transform:translate(0, 0px); opacity:1" fill="url(#sw-gradient-0)" d="M0,0L20,0C40,0,80,0,120,10C160,20,200,40,240,40C280,40,320,20,360,15C400,10,440,20,480,35C520,50,560,70,600,78.3C640,87,680,83,720,76.7C760,70,800,60,840,58.3C880,57,920,63,960,65C1000,67,1040,63,1080,53.3C1120,43,1160,27,1200,16.7C1240,7,1280,3,1320,5C1360,7,1400,13,1440,20C1480,27,1520,33,1560,43.3C1600,53,1640,67,1680,70C1720,73,1760,67,1800,53.3C1840,40,1880,20,1920,15C1960,10,2000,20,2040,30C2080,40,2120,50,2160,48.3C2200,47,2240,33,2280,38.3C2320,43,2360,67,2400,73.3C2440,80,2480,70,2520,58.3C2560,47,2600,33,2640,36.7C2680,40,2720,60,2760,70C2800,80,2840,80,2860,80L2880,80L2880,100L2860,100C2840,100,2800,100,2760,100C2720,100,2680,100,2640,100C2600,100,2560,100,2520,100C2480,100,2440,100,2400,100C2360,100,2320,100,2280,100C2240,100,2200,100,2160,100C2120,100,2080,100,2040,100C2000,100,1960,100,1920,100C1880,100,1840,100,1800,100C1760,100,1720,100,1680,100C1640,100,1600,100,1560,100C1520,100,1480,100,1440,100C1400,100,1360,100,1320,100C1280,100,1240,100,1200,100C1160,100,1120,100,1080,100C1040,100,1000,100,960,100C920,100,880,100,840,100C800,100,760,100,720,100C680,100,640,100,600,100C560,100,520,100,480,100C440,100,400,100,360,100C320,100,280,100,240,100C200,100,160,100,120,100C80,100,40,100,20,100L0,100Z"/></svg>